<?xml version="1.0" encoding="utf-8"?>
<!-- Generator: Adobe Illustrator 17.0.0, SVG Export Plug-In . SVG Version: 6.00 Build 0)  -->
<!DOCTYPE svg PUBLIC "-//W3C//DTD SVG 1.1//EN" "http://www.w3.org/Graphics/SVG/1.1/DTD/svg11.dtd">
<svg version="1.1" id="Layer_1" xmlns="http://www.w3.org/2000/svg" xmlns:xlink="http://www.w3.org/1999/xlink" x="0px" y="0px"
	 width="1024px" height="1024px" viewBox="0 0 1024 1024" enable-background="new 0 0 1024 1024" xml:space="preserve">
<g transform="translate(0.000000,1024.000000) scale(0.100000,-0.100000)">
	<path fill="#2A5B8E" d="M0,5120V0h5120h5120v5120v5120H5120H0V5120z M6656,8230c336-26,654-73,956-141c193-43,488-125,502-139
		c5-5,2-46-7-97c-77-420-565-3189-587-3333c-106-667-180-1557-180-2157v-243h-796h-795l6,98c4,53,22,286,40,517
		c19,231,37,455,40,499c5,62,4,77-6,74c-8-3-41-51-74-109c-268-460-622-809-1020-1004c-196-96-419-160-645-186c-148-17-416-7-554,21
		c-791,157-1312,807-1405,1754c-14,138-14,463-1,632c30,377,100,739,207,1069c363,1120,1110,1968,2124,2409
		c411,178,956,307,1434,339C6017,8241,6539,8239,6656,8230z"/>
	<path fill="#2A5B8E" d="M5541,6914c-381-64-751-318-1054-724c-240-322-446-799-531-1226c-46-235-51-288-51-564c0-236,3-277,23-377
		c91-451,304-683,627-684c135,0,251,32,377,106c428,251,784,868,992,1716c27,112,326,1659,326,1689c0,7-212,50-340,70
		C5820,6934,5642,6931,5541,6914z"/>
</g>
</svg>
