<?xml version="1.0" encoding="utf-8"?>
<!-- Generator: Adobe Illustrator 17.0.0, SVG Export Plug-In . SVG Version: 6.00 Build 0)  -->
<!DOCTYPE svg PUBLIC "-//W3C//DTD SVG 1.1//EN" "http://www.w3.org/Graphics/SVG/1.1/DTD/svg11.dtd">
<svg version="1.1" id="Layer_1" xmlns="http://www.w3.org/2000/svg" xmlns:xlink="http://www.w3.org/1999/xlink" x="0px" y="0px"
	 width="612px" height="792px" viewBox="0 0 612 792" enable-background="new 0 0 612 792" xml:space="preserve">
<path fill="#7289DA" d="M252.461,354.377c-16.86,0-30.171,14.79-30.171,32.833s13.607,32.833,30.171,32.833
	c16.86,0,30.171-14.79,30.171-32.833C282.928,369.167,269.321,354.377,252.461,354.377z M360.426,354.377
	c-16.86,0-30.171,14.79-30.171,32.833s13.607,32.833,30.171,32.833c16.86,0,30.171-14.79,30.171-32.833
	S377.287,354.377,360.426,354.377z"/>
<path fill="#7289DA" d="M504.183,106.204H107.817c-33.425,0-60.638,27.213-60.638,60.934v399.916
	c0,33.721,27.213,60.934,60.638,60.934h335.433l-15.677-54.722l37.862,35.2l35.791,33.129l63.596,56.201V167.138
	C564.821,133.417,537.608,106.204,504.183,106.204z M390.006,492.514c0,0-10.649-12.719-19.523-23.96
	c38.749-10.944,53.539-35.2,53.539-35.2c-12.128,7.986-23.664,13.607-34.017,17.452c-14.79,6.212-28.988,10.353-42.89,12.719
	c-28.396,5.324-54.426,3.845-76.611-0.296c-16.86-3.254-31.354-7.986-43.482-12.719c-6.803-2.662-14.198-5.916-21.593-10.057
	c-0.887-0.592-1.775-0.887-2.662-1.479c-0.592-0.296-0.887-0.592-1.183-0.887c-5.324-2.958-8.282-5.029-8.282-5.029
	s14.198,23.664,51.764,34.904c-8.874,11.24-19.818,24.551-19.818,24.551c-65.371-2.071-90.218-44.961-90.218-44.961
	c0-95.246,42.595-172.449,42.595-172.449c42.595-31.946,83.119-31.059,83.119-31.059l2.958,3.55
	c-53.243,15.381-77.794,38.749-77.794,38.749s6.507-3.55,17.452-8.578c31.65-13.902,56.793-17.748,67.146-18.635
	c1.775-0.296,3.254-0.592,5.029-0.592c18.044-2.366,38.453-2.958,59.751-0.592c28.101,3.254,58.272,11.536,89.035,28.396
	c0,0-23.368-22.185-73.653-37.566l4.141-4.733c0,0,40.524-0.887,83.119,31.059c0,0,42.595,77.203,42.595,172.449
	C480.52,447.553,455.377,490.443,390.006,492.514z"/>
</svg>
