<?xml version="1.0" encoding="UTF-8" ?>
<!DOCTYPE svg PUBLIC "-//W3C//DTD SVG 1.1//EN" "http://www.w3.org/Graphics/SVG/1.1/DTD/svg11.dtd">
<svg width="344pt" height="331pt" viewBox="0 0 344 331" version="1.1" xmlns="http://www.w3.org/2000/svg">
<path fill="#f8a853" d=" M 92.98 0.00 L 98.74 0.00 C 103.02 1.18 106.96 4.54 107.64 9.10 C 108.82 14.92 104.98 21.12 99.18 22.49 C 92.84 24.40 85.86 19.52 84.98 13.07 C 83.85 7.39 87.82 2.00 92.98 0.00 Z" />
<path fill="#f8a853" d=" M 59.11 1.25 C 66.84 -0.52 74.37 7.28 72.48 14.93 C 71.42 22.27 62.40 26.26 56.03 22.81 C 50.14 20.10 47.96 11.91 51.48 6.53 C 53.11 3.77 55.98 1.84 59.11 1.25 Z" />
<path fill="#f8a853" d=" M 133.34 1.55 C 142.96 -0.53 153.03 7.12 153.67 16.91 C 154.95 26.16 147.36 35.37 138.02 35.76 C 128.89 36.86 119.51 29.49 119.30 20.12 C 118.28 11.51 124.71 2.80 133.34 1.55 Z" />
<path fill="#f8a853" d=" M 174.21 16.21 C 179.45 7.74 190.52 3.23 200.18 5.80 C 208.30 7.91 214.72 14.94 216.69 23.00 C 218.50 30.37 215.70 37.83 211.80 44.01 C 230.87 50.79 248.50 61.70 262.70 76.15 C 266.69 69.35 272.85 62.83 281.04 61.74 C 289.53 60.71 298.84 64.01 303.83 71.19 C 309.93 79.84 309.57 93.25 301.49 100.56 C 297.06 104.44 291.57 106.90 285.95 108.48 C 293.02 124.07 297.91 140.80 298.78 157.96 C 298.90 161.01 299.06 164.06 299.24 167.10 C 305.80 165.68 313.07 164.23 319.23 167.79 C 326.00 171.96 331.77 178.90 332.52 187.07 C 333.67 199.27 323.37 211.50 310.99 211.78 C 304.44 212.01 298.49 208.98 292.90 205.96 C 291.71 207.81 291.30 210.04 290.44 212.05 C 284.54 226.82 275.99 240.55 265.21 252.24 C 263.76 253.82 262.15 255.28 260.92 257.06 C 265.72 260.12 270.72 263.39 273.45 268.58 C 278.63 278.17 275.64 291.38 267.04 298.02 C 257.26 305.86 241.00 303.43 233.97 293.02 C 231.32 289.35 230.11 284.92 229.13 280.56 C 217.83 284.36 206.72 288.98 194.92 291.06 C 186.86 292.63 178.63 293.11 170.57 294.60 C 172.04 302.70 172.07 312.02 166.78 318.82 C 161.53 324.99 152.89 328.13 144.90 326.72 C 135.91 325.30 128.00 318.07 126.20 309.09 C 124.64 301.35 128.21 294.01 131.48 287.26 C 112.15 281.23 94.68 269.91 80.20 255.86 C 76.57 262.48 70.81 268.70 63.15 270.31 C 55.81 271.71 48.04 269.28 42.22 264.75 C 31.10 255.35 32.99 234.89 45.74 227.77 C 48.93 225.83 52.56 224.82 56.18 224.03 C 52.73 213.68 48.53 203.54 46.23 192.84 C 44.34 183.85 43.49 174.68 42.22 165.58 C 34.69 167.28 26.03 167.23 19.70 162.24 C 13.53 157.21 9.62 149.07 10.51 141.04 C 11.52 130.02 21.63 119.96 32.98 120.54 C 38.77 120.58 44.21 122.99 49.22 125.69 C 55.80 106.54 66.68 88.87 81.05 74.59 C 74.12 70.75 67.89 64.25 67.02 56.06 C 66.21 47.69 69.51 38.60 76.58 33.71 C 85.41 27.10 98.97 28.63 106.57 36.43 C 110.36 40.39 112.42 45.67 113.54 50.96 C 131.78 42.52 151.70 37.47 171.87 37.56 C 170.94 30.45 170.18 22.57 174.21 16.21 Z" />
<path fill="#f8a853" d=" M 9.17 7.23 C 13.43 5.17 18.62 10.17 16.74 14.51 C 15.51 18.96 8.55 19.67 6.38 15.64 C 4.44 12.75 6.03 8.51 9.17 7.23 Z" />
<path fill="#f8a853" d=" M 31.20 7.24 C 35.54 5.11 40.86 10.37 38.66 14.73 C 37.28 19.03 30.52 19.56 28.40 15.61 C 26.40 12.71 28.03 8.48 31.20 7.24 Z" />
<path fill="#f8a853" d=" M 247.47 20.62 C 252.04 19.56 257.07 20.32 260.97 22.98 C 267.09 26.95 270.02 35.09 267.99 42.08 C 266.33 48.75 260.26 54.00 253.42 54.69 C 244.51 55.82 235.21 49.20 234.22 40.10 C 232.61 31.39 238.84 22.37 247.47 20.62 Z" />
<path fill="#f8a853" d=" M 8.38 28.54 C 11.78 26.17 16.87 28.89 17.04 32.97 C 17.76 37.41 12.33 40.81 8.53 38.56 C 4.63 36.67 4.63 30.60 8.38 28.54 Z" />
<path fill="#f8a853" d=" M 42.39 33.49 C 50.07 31.64 57.80 39.45 55.90 47.10 C 54.71 54.47 45.44 58.63 39.05 54.91 C 34.46 52.61 32.20 46.96 33.55 42.07 C 34.50 37.79 38.07 34.29 42.39 33.49 Z" />
<path fill="#f8a853" d=" M 0.00 61.29 C 1.18 52.98 12.33 48.94 18.56 54.49 C 24.93 59.22 23.88 70.30 16.65 73.63 C 10.17 77.26 1.52 72.83 0.00 65.72 L 0.00 61.29 Z" />
<path fill="#1c1d26" d=" M 167.29 65.38 C 187.27 64.55 207.45 70.04 224.33 80.75 C 244.39 93.38 259.87 113.23 266.82 135.93 C 273.83 157.95 272.50 182.36 263.68 203.66 C 254.62 225.78 237.40 244.42 216.04 255.14 C 195.24 265.75 170.62 268.58 147.95 263.05 C 124.50 257.56 103.32 243.17 89.39 223.55 C 75.26 203.99 68.64 179.10 71.44 155.12 C 73.58 134.45 82.39 114.59 96.19 99.07 C 113.98 78.77 140.31 66.31 167.29 65.38 Z" />
<path fill="#f8a853" d=" M 37.37 69.60 C 45.35 66.43 55.17 70.39 58.88 78.08 C 62.45 85.08 60.41 94.36 54.31 99.29 C 48.25 104.43 38.62 104.47 32.49 99.42 C 26.09 94.57 24.29 85.03 27.86 77.96 C 29.87 74.16 33.30 71.04 37.37 69.60 Z" />
<path fill="#f8a853" d=" M 11.31 94.40 C 17.99 91.59 26.47 96.60 26.83 103.93 C 27.94 111.36 20.30 118.04 13.09 116.46 C 6.23 115.37 1.98 107.19 4.69 100.89 C 5.73 97.84 8.34 95.51 11.31 94.40 Z" />
<path fill="#f8a853" d=" M 315.55 114.62 C 323.39 112.95 332.15 117.45 335.00 125.02 C 338.69 133.68 333.93 144.81 324.94 147.83 C 316.15 151.26 305.06 146.26 302.54 137.01 C 299.06 127.59 305.54 116.12 315.55 114.62 Z" />
<path fill="#f8a853" d=" M 21.44 183.63 C 31.36 181.49 41.73 189.82 41.63 199.99 C 42.52 209.64 33.73 218.69 24.03 217.86 C 14.97 218.18 7.00 210.03 7.16 201.04 C 6.78 192.74 13.24 184.91 21.44 183.63 Z" />
<path fill="#f8a853" d=" M 326.23 215.37 C 333.68 214.85 340.03 222.83 337.75 229.97 C 336.09 236.94 327.22 240.53 321.06 237.07 C 315.35 234.23 313.49 226.21 316.86 220.94 C 318.76 217.62 322.47 215.63 326.23 215.37 Z" />
<path fill="#f8a853" d=" M 294.42 229.57 C 302.40 226.87 312.10 230.57 315.70 238.32 C 319.28 245.22 317.25 254.38 311.26 259.28 C 306.10 263.55 298.42 264.63 292.42 261.51 C 286.29 258.60 282.38 251.76 282.94 244.99 C 283.14 238.13 287.91 231.73 294.42 229.57 Z" />
<path fill="#f8a853" d=" M 326.36 258.48 C 333.29 254.82 342.71 260.09 342.97 267.97 C 343.78 274.35 338.20 280.23 331.91 280.38 C 325.42 280.65 319.33 274.48 320.19 267.92 C 320.27 263.93 322.85 260.27 326.36 258.48 Z" />
<path fill="#f8a853" d=" M 295.32 276.53 C 299.51 275.51 304.45 276.25 307.33 279.71 C 312.51 285.28 310.18 295.68 302.89 298.20 C 296.36 301.17 288.17 296.12 287.37 289.12 C 286.32 283.66 290.05 278.03 295.32 276.53 Z" />
<path fill="#f8a853" d=" M 86.44 277.57 C 92.26 276.11 98.83 277.52 103.21 281.73 C 108.86 286.86 110.16 295.87 106.42 302.47 C 101.99 311.32 89.40 314.43 81.40 308.58 C 74.81 304.25 72.49 295.31 75.02 288.04 C 76.86 283.00 81.22 278.90 86.44 277.57 Z" />
<path fill="#f8a853" d=" M 329.39 293.47 C 333.02 291.80 337.56 294.98 337.34 298.95 C 337.59 303.30 331.85 306.29 328.41 303.66 C 324.66 301.44 325.17 294.84 329.39 293.47 Z" />
<path fill="#f8a853" d=" M 201.41 296.46 C 210.11 293.63 220.18 299.24 222.66 307.96 C 224.66 313.96 222.89 320.96 218.33 325.32 C 212.45 331.37 201.95 331.96 195.35 326.76 C 189.23 322.07 187.10 313.15 190.12 306.11 C 192.08 301.36 196.43 297.69 201.41 296.46 Z" />
<path fill="#f8a853" d=" M 241.65 308.69 C 247.65 306.00 255.30 309.86 256.88 316.19 C 259.05 322.94 253.80 330.57 246.73 331.00 L 245.31 331.00 C 241.03 330.38 236.78 327.91 235.15 323.73 C 232.58 318.05 235.81 310.77 241.65 308.69 Z" />
<path fill="#f8a853" d=" M 271.78 313.67 C 275.70 306.36 287.49 306.41 291.48 313.63 C 295.80 320.14 291.36 329.71 283.76 331.00 L 279.25 331.00 C 271.82 329.34 267.77 320.19 271.78 313.67 Z" />
<path fill="#f8a853" d=" M 307.44 314.43 C 311.50 312.15 316.92 316.50 315.61 320.96 C 314.94 324.51 310.43 326.65 307.31 324.75 C 303.15 322.92 303.29 316.18 307.44 314.43 Z" />
<path fill="#f8a853" d=" M 328.38 314.53 C 331.53 312.14 336.30 314.41 337.15 318.06 C 338.47 322.36 333.27 326.98 329.24 324.67 C 325.14 323.13 324.73 316.79 328.38 314.53 Z" />
</svg>
