<?xml version="1.0" encoding="utf-8"?>
<!-- Generator: Adobe Illustrator 17.0.0, SVG Export Plug-In . SVG Version: 6.00 Build 0)  -->
<!DOCTYPE svg PUBLIC "-//W3C//DTD SVG 1.1//EN" "http://www.w3.org/Graphics/SVG/1.1/DTD/svg11.dtd">
<svg version="1.1" id="Layer_1" xmlns="http://www.w3.org/2000/svg" xmlns:xlink="http://www.w3.org/1999/xlink" x="0px" y="0px"
	 width="612px" height="792px" viewBox="0 0 612 792" enable-background="new 0 0 612 792" xml:space="preserve">
<title>graphics-logo copy</title>
<path id="Fill-38_3_" fill="#37474F" d="M598.533,437.27c0,5.255-4.27,9.525-9.525,9.525s-9.525-4.27-9.525-9.525V336.432
	c0-13.467-10.839-24.306-23.978-24.306l-1.642-0.328v-18.722h1.642c23.649,0,43.029,19.379,43.029,43.029L598.533,437.27
	L598.533,437.27z M40.802,335.446v100.838c0,5.255-4.27,9.525-9.525,9.525c-5.255,0-9.525-4.27-9.525-9.525V335.446
	c0-23.649,19.379-43.029,43.357-43.029l1.971,0.328v18.066l-1.971,0.328C51.641,311.14,40.802,321.979,40.802,335.446
	L40.802,335.446z M553.534,281.578v-16.095c0-50.912-41.386-91.97-91.97-91.97H158.72c-50.583,0-91.97,41.386-91.97,91.97v11.168
	h-4.927c-32.846,0-59.123,26.277-59.123,58.795v100.838c0,32.518,26.277,58.467,59.123,58.467h43.029v-74.233
	c1.314-2.956,2.299-5.912,2.299-9.197V265.484c0-28.576,22.992-51.569,51.569-51.569h302.844c28.248,0,51.569,22.992,51.569,51.569
	v16.095h-2.299v218.1h42.7c32.189,0,58.466-26.277,58.466-58.467V340.373C612,307.856,586.052,281.907,553.534,281.578
	L553.534,281.578z"/>
<path id="Fill-39_3_" fill="#5F6C72" d="M555.504,293.732h-1.642v18.394l1.642,0.328c13.139,0,23.978,10.839,23.978,24.306v100.838
	c0,5.255,4.27,9.525,9.525,9.525c5.255,0,9.525-4.27,9.525-9.525V336.432C598.533,312.782,579.154,293.732,555.504,293.732"/>
<path id="Fill-40_3_" fill="#5F6C72" d="M66.75,292.746l-1.971-0.328c-23.978,0-43.357,19.379-43.357,43.029v100.838
	c0,5.255,4.27,9.525,9.525,9.525c5.255,0,9.525-4.27,9.525-9.525V335.446c0-13.467,10.839-23.978,24.306-23.978l1.971-0.328
	L66.75,292.746"/>
<path id="Fill-41_3_" fill="#31C3A2" d="M461.892,234.937H159.049c-16.752,0-30.547,13.795-30.547,30.547v264.742
	c0,16.752,13.795,30.547,30.547,30.547h46.642c6.898,0,12.482,5.584,12.482,12.482v42.372l50.912-51.24
	c2.299-2.299,5.584-3.613,8.868-3.613h184.268c16.752,0,30.547-13.795,30.547-30.547V265.484
	C492.439,248.732,478.644,234.937,461.892,234.937"/>
<path id="Fill-42_3_" fill="#37474F" d="M492.439,530.225c0,16.752-13.796,30.547-30.547,30.547H277.624
	c-3.285,0-6.569,1.314-8.868,3.613l-50.912,51.24v-42.372c0-6.898-5.584-12.482-12.482-12.482H158.72
	c-16.752,0-30.547-13.795-30.547-30.547V265.484c0-17.08,13.795-30.547,30.547-30.547h302.844c16.752,0,30.547,13.795,30.547,30.547
	v264.742 M461.892,209.973H159.049c-30.547,0-55.182,24.963-55.182,55.51v264.742c0,30.547,24.963,55.51,55.182,55.51h34.16v59.78
	c0,4.927,2.956,9.525,7.555,11.496c1.642,0.657,3.285,0.985,4.598,0.985c3.285,0,6.241-1.314,8.869-3.613l68.32-68.649h179.013
	c30.547,0,55.51-24.963,55.51-55.51V265.484C517.074,234.937,492.439,209.973,461.892,209.973"/>
<path id="Fill-45_3_" fill="#33A48D" d="M492.439,516.43H341.346c-5.255,0-9.854-3.285-11.496-7.883l-20.036-50.912l-20.036,50.912
	c-1.971,4.927-6.569,7.883-11.496,7.883H128.83v-24.963h140.911l28.576-72.262c1.971-4.927,6.569-7.883,11.496-7.883
	c5.255,0,9.854,3.285,11.496,7.883l28.576,72.262h142.553L492.439,516.43"/>
<polygon id="Fill-46_3_" fill="#37474F" points="492.439,516.43 492.439,516.43 492.439,491.467 492.439,491.467 "/>
<path id="Fill-47_3_" fill="#FFFFFF" d="M88.429,431.358c0,22.992,18.722,41.715,41.715,41.715h136.969l30.219-76.532
	c1.971-4.927,6.898-8.212,12.153-8.212c5.584,0,10.182,3.285,12.153,8.212l30.219,76.204h136.641
	c22.992,0,41.715-18.722,41.715-41.715l0.328-123.174H87.772L88.429,431.358"/>
<path id="Fill-48_3_" fill="#37474F" d="M530.213,431.686c0,22.992-18.722,41.715-41.715,41.715H352.185l-30.219-76.204
	c-1.971-4.927-6.898-8.212-12.153-8.212c-5.255,0-10.182,3.285-12.153,8.212l-30.547,75.875H130.144
	c-22.992,0-41.715-18.722-41.715-41.715l-0.657-122.845h442.441V431.686L530.213,431.686z M552.877,285.848
	c-2.628-2.628-5.912-3.942-9.525-3.942H74.633c-3.613,0-6.898,1.314-9.525,3.942c-2.628,2.628-3.942,5.912-3.942,9.525
	l0.657,136.312c0,37.445,30.547,67.992,67.992,67.992h146.166c5.584,0,10.182-3.285,12.153-8.212l21.35-53.54l21.35,53.54
	c1.971,4.927,6.898,8.212,12.153,8.212h145.509c37.445,0,67.992-30.547,67.992-67.992l0.328-136.312
	C556.818,291.761,555.504,288.148,552.877,285.848L552.877,285.848z"/>
<path id="Fill-49_3_" fill="#37474F" d="M413.936,388.658c-11.168,0-20.365-9.197-20.365-20.365s9.197-20.693,20.365-20.693
	c11.168,0,20.365,9.197,20.365,20.693C434.63,379.461,425.433,388.658,413.936,388.658L413.936,388.658z M421.163,332.819
	c-22.336,0-40.729,18.066-40.729,40.729v34.489c0,22.336,18.066,40.73,40.729,40.73c22.335,0,40.729-18.066,40.729-40.73v-34.489
	C461.564,351.213,443.498,332.819,421.163,332.819L421.163,332.819z"/>
<path id="Fill-50_3_" fill="#FFFFFF" d="M434.63,367.964c0-11.168-9.197-20.693-20.365-20.693c-11.168,0-20.365,9.197-20.365,20.693
	c0,11.496,9.197,20.365,20.365,20.365C425.433,388.658,434.63,379.461,434.63,367.964"/>
<path id="Fill-51_3_" fill="#37474F" d="M192.88,388.658c-11.168,0-20.365-9.197-20.365-20.365s9.197-20.693,20.365-20.693
	c11.168,0,20.365,9.197,20.365,20.693C213.574,379.461,204.377,388.658,192.88,388.658L192.88,388.658z M200.107,332.819
	c-22.336,0-40.729,18.066-40.729,40.729v34.489c0,22.336,18.066,40.73,40.729,40.73c22.336,0,40.729-18.066,40.729-40.73v-34.489
	C240.508,351.213,222.442,332.819,200.107,332.819L200.107,332.819z"/>
<path id="Fill-52_3_" fill="#FFFFFF" d="M213.574,367.964c0-11.168-9.197-20.693-20.365-20.693
	c-11.168,0-20.365,9.197-20.365,20.693c0,11.496,9.197,20.365,20.365,20.365C204.377,388.658,213.574,379.461,213.574,367.964"/>
</svg>
