<?xml version="1.0" encoding="utf-8"?>
<!-- Generator: Adobe Illustrator 17.0.0, SVG Export Plug-In . SVG Version: 6.00 Build 0)  -->
<!DOCTYPE svg PUBLIC "-//W3C//DTD SVG 1.1//EN" "http://www.w3.org/Graphics/SVG/1.1/DTD/svg11.dtd">
<svg version="1.1" id="Layer_1" xmlns="http://www.w3.org/2000/svg" xmlns:xlink="http://www.w3.org/1999/xlink" x="0px" y="0px"
	 width="429px" height="429px" viewBox="0 0 429 429" enable-background="new 0 0 429 429" xml:space="preserve">
<g transform="translate(0.000000,429.000000) scale(0.100000,-0.100000)">
	<path fill="#DB5226" d="M1977,4059l-137-130l-171,81c-133,63-174,78-181,68c-4-7-45-80-89-163c-45-82-83-152-85-154
		c-3-4-337,37-364,45c-13,3-22-28-49-178c-18-101-36-186-40-190s-86-23-184-41c-97-18-179-36-182-38c-4-4,17-188,39-339l6-36
		l-165-89c-91-50-165-93-165-97s35-83,79-175l79-167l-127-134c-69-73-126-137-126-142s55-68,122-139c68-71,123-135,123-141
		c0-7-34-84-75-171s-75-162-75-166c0-5,74-49,165-98c164-88,165-89,160-120c-20-122-44-340-38-345c5-4,80-19,168-35s169-32,181-36
		c18-6,25-31,54-193c32-174,35-185,54-181c41,9,357,47,360,44c2-2,40-71,85-154c44-82,85-156,89-163c7-10,49,6,182,68l173,82l91-89
		c50-48,112-108,137-131l46-44l119,114c66,62,128,121,140,131c20,17,26,15,189-63c93-45,171-77,175-73s45,77,91,162
		c46,84,89,155,95,158c6,2,91-7,190-20c98-14,180-24,181-23c0,0,17,83,36,184s36,185,38,187s83,18,179,36s179,36,184,40
		c4,4-1,79-13,167c-11,89-21,172-21,186c0,22,17,34,133,97c72,39,146,80,164,91l32,19l-80,165c-43,92-79,170-79,175
		c0,4,51,61,113,125c61,64,118,125,125,136c16,23,18,20-110,153c-47,50-96,103-109,118l-22,29l81,168l80,169l-31,19
		c-18,11-92,52-164,91c-155,84-143,53-112,284c12,88,17,162,13,166c-5,4-87,22-183,39c-96,18-177,34-179,37c-3,3-20,87-39,187
		c-19,101-35,183-36,184s-82-10-181-23c-98-13-184-22-191-20c-6,3-49,74-94,159c-46,84-86,157-90,161s-83-29-176-73
		c-140-67-170-78-184-68c-9,7-61,56-116,110c-55,53-112,106-126,117l-26,20L1977,4059z M3254,3031c29-5,55-16,63-27
		c20-28,19-1462-1-1490c-12-16-29-20-98-22c-46-2-95,1-110,7c-26,10-28,14-28,72v61l-46-41c-103-90-203-127-325-118
		c-130,9-230,67-300,176l-29,45v-90c0-88-1-91-25-102c-35-16-177-15-198,1c-9,6-17,29-19,50l-3,38l-54-41c-150-113-398-104-521,20
		c-66,65-93,140-88,240c13,216,151,309,491,326l127,7v59c0,95-34,141-117,158c-73,16-159,1-270-45c-120-50-138-53-157-24
		c-41,63-28,162,27,203c133,99,460,126,622,52c90-41,147-109,169-200c7-28,7-27,33,25c39,79,125,161,198,189c48,19,80,24,160,24
		c90,1,105-2,154-27c30-15,71-41,92-58l39-31v271c0,205,3,272,13,278C3084,3036,3181,3043,3254,3031z M1105,2816l35-15v-120v-121
		h114c90,0,116-3,126-15c18-21,19-163,2-192c-12-22-19-23-127-23h-115v-262c0-230,2-267,18-298c22-46,69-59,146-40c30,7,61,10,69,7
		c24-9,32-133,13-195c-9-29-58-51-137-62c-160-23-293,22-349,117c-44,74-50,129-50,440v293h-68c-64,0-70,2-80,25
		c-15,32-16,159-2,186c9,16,22,19,80,19h70v119c0,123,3,134,45,144C941,2834,1072,2829,1105,2816z"/>
	<path fill="#DB5226" d="M2741,2323c-37-18-72-66-97-133c-21-57-24-233-5-307c15-62,59-126,100-148c75-38,177-2,256,91l45,52v155
		v155l-50,55C2908,2333,2820,2361,2741,2323z"/>
	<path fill="#DB5226" d="M1890,1941c-48-10-96-36-114-63c-21-30-21-117,0-147c9-13,32-29,50-37c70-29,143-12,220,51l43,35l3,85l3,85
		l-85-1C1963,1948,1909,1945,1890,1941z"/>
</g>
</svg>
