<?xml version="1.0" encoding="utf-8"?>
<!-- Generator: Adobe Illustrator 17.0.0, SVG Export Plug-In . SVG Version: 6.00 Build 0)  -->
<!DOCTYPE svg PUBLIC "-//W3C//DTD SVG 1.1//EN" "http://www.w3.org/Graphics/SVG/1.1/DTD/svg11.dtd">
<svg version="1.1" id="Logo_FIXED" xmlns="http://www.w3.org/2000/svg" xmlns:xlink="http://www.w3.org/1999/xlink" x="0px" y="0px"
	 width="612px" height="792px" viewBox="0 0 612 792" enable-background="new 0 0 612 792" xml:space="preserve">
<title>Twitter_Logo_Blue</title>
<path fill="#00ACED" d="M218.211,594.433c200.944,0,310.852-166.481,310.852-310.852c0-4.729,0-9.436-0.32-14.122
	c21.382-15.466,39.839-34.615,54.507-56.551c-19.939,8.835-41.091,14.629-62.75,17.189c22.807-13.654,39.876-35.129,48.031-60.428
	c-21.446,12.726-44.908,21.694-69.374,26.518c-41.375-43.995-110.582-46.12-154.577-4.744
	c-28.373,26.684-40.412,66.445-31.606,104.386c-87.843-4.404-169.687-45.895-225.162-114.147
	c-28.997,49.92-14.186,113.782,33.824,145.841c-17.386-0.515-34.394-5.205-49.586-13.675c0,0.447,0,0.916,0,1.384
	c0.014,52.006,36.673,96.799,87.649,107.096c-16.084,4.387-32.96,5.028-49.331,1.874c14.312,44.505,55.328,74.993,102.07,75.871
	c-38.686,30.404-86.477,46.91-135.681,46.86c-8.692-0.017-17.376-0.543-26.007-1.576c49.962,32.062,108.096,49.069,167.461,48.99"/>
</svg>
