<?xml version="1.0" encoding="utf-8"?>
<!-- Generator: Adobe Illustrator 17.0.0, SVG Export Plug-In . SVG Version: 6.00 Build 0)  -->
<!DOCTYPE svg PUBLIC "-//W3C//DTD SVG 1.1//EN" "http://www.w3.org/Graphics/SVG/1.1/DTD/svg11.dtd">
<svg version="1.1" id="Layer_1" xmlns="http://www.w3.org/2000/svg" xmlns:xlink="http://www.w3.org/1999/xlink" x="0px" y="0px"
	 width="1024px" height="721px" viewBox="0 0 1024 721" enable-background="new 0 0 1024 721" xml:space="preserve">
<g transform="translate(0.000000,721.000000) scale(0.100000,-0.100000)">
	<path fill="#E52D27" stroke="#000000" stroke-miterlimit="10" d="M4357.15,6826.855
		c-1524.128-26.03-2473.791-70.911-2743.072-129.255c-231.581-50.266-422.771-153.49-589.724-316.854
		c-159.773-157.978-258.509-355.45-343.781-686.666c-43.085-167.852-56.549-249.533-79.887-486.5
		c-52.958-545.742-62.832-796.173-62.832-1599.527c0-819.51,15.259-1166.882,72.706-1694.672
		c43.983-403.921,158.876-758.474,315.058-971.205c86.17-117.586,222.605-227.991,371.607-302.492
		c352.758-175.032,826.691-212.732,3190.077-253.124c1377.819-23.338,3566.173,37.699,4057.161,113.995
		c367.119,56.549,683.973,266.588,846.438,560.104c73.604,132.845,152.593,366.222,198.37,579.851
		c36.802,173.237,80.784,638.195,104.122,1087.893c11.669,233.377,11.669,1522.333,0,1752.119
		c-18.85,363.529-61.037,849.131-86.17,1000.826c-17.952,108.61-70.911,311.468-108.61,421.873
		c-73.604,211.834-157.978,354.553-282.744,477.524c-196.575,192.984-415.59,297.106-714.491,338.396
		c-246.841,35.007-1005.314,71.808-1958.568,95.146C6189.156,6823.265,4663.233,6832.241,4357.15,6826.855z M5558.142,4269.587
		c596.007-310.57,1083.405-567.284,1083.405-569.977c0-3.59-524.199-276.461-2281.704-1187.527l-186.701-96.043v1288.059v1288.059
		l150.797-78.092C4406.519,4870.083,4962.134,4581.055,5558.142,4269.587z"/>
</g>
</svg>
